# xmcd CD database file
#
# Track frame offsets:
#	150
#	26939
#	35232
#	66946
#	94374
#	126335
#	152847
#	184651
#
# Disc length: 2775 seconds
#
# Revision: 1
# Processed by: cddbd v1.5.2PL0 Copyright (c) Steve Scherf et al.
# Submitted via: CDex 1.51
#
DISCID=760ad508
DTITLE=Mariano Diaz Quartet - Plan B
DYEAR=2006
DGENRE=Jazz
TTITLE0=Zuco de Iaranja
TTITLE1=Charly
TTITLE2=Plan B
TTITLE3=Moment Notice
TTITLE4=East 5th.
TTITLE5=Peonza
TTITLE6=And I love Her
TTITLE7=Hi steppers
EXTD=YEAR: 2006
EXTT0=
EXTT1=
EXTT2=
EXTT3=
EXTT4=
EXTT5=
EXTT6=
EXTT7=
PLAYORDER=
